<svg xmlns="http://www.w3.org/2000/svg" width="24" height="24" fill="none" viewBox="0 0 24 24" id="menu">
    <path fill="#000" fill-rule="evenodd" d="M7.59494 4.02721C6.87477 3.85828 6.12527 3.85828 5.40509 4.02721 4.72141 4.18758 4.18758 4.72141 4.02721 5.40509 3.85828 6.12527 3.85828 6.87477 4.02721 7.59495 4.18758 8.27863 4.72141 8.81246 5.4051 8.97283 6.12527 9.14176 6.87477 9.14176 7.59494 8.97283 8.27863 8.81246 8.81246 8.27863 8.97283 7.59494 9.14176 6.87477 9.14176 6.12527 8.97283 5.40509 8.81246 4.72141 8.27863 4.18758 7.59494 4.02721zM5.06254 2.56685C6.00803 2.34507 6.99201 2.34507 7.9375 2.56685 9.17582 2.85732 10.1427 3.82422 10.4332 5.06254 10.655 6.00803 10.655 6.99201 10.4332 7.9375 10.1427 9.17582 9.17582 10.1427 7.9375 10.4332 6.99201 10.655 6.00803 10.655 5.06254 10.4332 3.82422 10.1427 2.85732 9.17583 2.56685 7.9375 2.34507 6.99201 2.34507 6.00803 2.56685 5.06254 2.85732 3.82421 3.82422 2.85732 5.06254 2.56685zM7.59494 15.0272C6.87477 14.8583 6.12527 14.8583 5.40509 15.0272 4.72141 15.1876 4.18758 15.7214 4.02721 16.4051 3.85828 17.1253 3.85828 17.8748 4.02721 18.5949 4.18758 19.2786 4.72141 19.8125 5.4051 19.9728 6.12527 20.1418 6.87477 20.1418 7.59494 19.9728 8.27863 19.8125 8.81246 19.2786 8.97283 18.5949 9.14176 17.8748 9.14176 17.1253 8.97283 16.4051 8.81246 15.7214 8.27863 15.1876 7.59494 15.0272zM5.06254 13.5668C6.00803 13.3451 6.99201 13.3451 7.9375 13.5668 9.17582 13.8573 10.1427 14.8242 10.4332 16.0625 10.655 17.008 10.655 17.992 10.4332 18.9375 10.1427 20.1758 9.17582 21.1427 7.9375 21.4332 6.99201 21.655 6.00803 21.655 5.06254 21.4332 3.82422 21.1427 2.85732 20.1758 2.56685 18.9375 2.34507 17.992 2.34507 17.008 2.56685 16.0625 2.85732 14.8242 3.82422 13.8573 5.06254 13.5668zM18.5949 4.02721C17.8748 3.85828 17.1253 3.85828 16.4051 4.02721 15.7214 4.18758 15.1876 4.72141 15.0272 5.40509 14.8583 6.12527 14.8583 6.87477 15.0272 7.59495 15.1876 8.27863 15.7214 8.81246 16.4051 8.97283 17.1253 9.14176 17.8748 9.14176 18.5949 8.97283 19.2786 8.81246 19.8125 8.27863 19.9728 7.59494 20.1418 6.87477 20.1418 6.12527 19.9728 5.40509 19.8125 4.72141 19.2786 4.18758 18.5949 4.02721zM16.0625 2.56685C17.008 2.34507 17.992 2.34507 18.9375 2.56685 20.1758 2.85732 21.1427 3.82422 21.4332 5.06254 21.655 6.00803 21.655 6.99201 21.4332 7.9375 21.1427 9.17582 20.1758 10.1427 18.9375 10.4332 17.992 10.655 17.008 10.655 16.0625 10.4332 14.8242 10.1427 13.8573 9.17583 13.5668 7.9375 13.3451 6.99201 13.3451 6.00803 13.5668 5.06254 13.8573 3.82421 14.8242 2.85732 16.0625 2.56685zM18.5949 15.0272C17.8748 14.8583 17.1253 14.8583 16.4051 15.0272 15.7214 15.1876 15.1876 15.7214 15.0272 16.4051 14.8583 17.1253 14.8583 17.8748 15.0272 18.5949 15.1876 19.2786 15.7214 19.8125 16.4051 19.9728 17.1253 20.1418 17.8748 20.1418 18.5949 19.9728 19.2786 19.8125 19.8125 19.2786 19.9728 18.5949 20.1418 17.8748 20.1418 17.1253 19.9728 16.4051 19.8125 15.7214 19.2786 15.1876 18.5949 15.0272zM16.0625 13.5668C17.008 13.3451 17.992 13.3451 18.9375 13.5668 20.1758 13.8573 21.1427 14.8242 21.4332 16.0625 21.655 17.008 21.655 17.992 21.4332 18.9375 21.1427 20.1758 20.1758 21.1427 18.9375 21.4332 17.992 21.655 17.008 21.655 16.0625 21.4332 14.8242 21.1427 13.8573 20.1758 13.5668 18.9375 13.3451 17.992 13.3451 17.008 13.5668 16.0625 13.8573 14.8242 14.8242 13.8573 16.0625 13.5668z" clip-rule="evenodd"></path>
</svg>